<svg xmlns="http://www.w3.org/2000/svg" width="298" height="39.333" xml:space="preserve"><path fill="#117BBE" d="M31.528 16.455c.009-.189-.104-.152-.101-.327.006-.056.043.011.043-.045 0-.218-.049-.397-.067-.595-.019-.15.122.067.021-.406-.071-.331.069-.45-.084-.649-.063-.081-.032-.174-.069-.267-.025-.059.15-.028-.012-.197-.07-.016-.094-.035-.156-.025-.041-.072.104-.408.043-.741-.05-.262-.126-.166-.153-.247-.038-.094.031-.188.013-.291-.025-.16-.021-.348-.089-.463-.074-.032-.123-.105-.199-.139l-.04-.304c-.016-.136-.169-.124-.275-.335-.01-.144.063-.034.072-.129-.02-.033-.113-.09-.162-.18-.063-.111-.089-.265-.15-.326-.07-.074-.091-.029-.141-.102-.098-.152-.101-.303-.203-.441-.057-.082-.07-.123-.12-.188-.08-.1-.125-.03-.175-.118-.021-.136-.034-.185-.051-.32-.006-.05-.281-.158-.346-.174-.043-.011-.141.003-.168-.013-.07-.039-.076-.118-.16-.162-.025-.021-.079-.15-.129-.18-.075-.041-.205-.002-.27-.068-.073-.08-.068-.209-.156-.283-.084-.07-.209-.082-.293-.149-.148-.12-.271-.28-.372-.27-.159.011-.069.111-.241.089-.115-.012-.27-.092-.332-.098.029-.029-.036-.084-.027-.088.01-.01.092.033.156.004.017-.107.027-.146-.24-.234-.057-.02-.104-.07-.162-.127a.594.594 0 0 0-.244.024c-.061.028.053.101-.084.111-.156-.17-.308-.212-.664-.323-.159-.049-.271-.155-.444-.207-.089-.025-.284-.028-.365-.047-.173-.037-.144.006-.285-.135-.08-.087-.209.035-.319.035-.276.01-.433-.081-.677-.031-.069.012-.563-.047-.372.039.23.098.256.103.07.055-.184-.043-.562.021-.578.016-.037.011.041-.051-.018-.029-.069.022-.117.113-.203.147-.088.032-.075.106-.25.108-.086 0 .943.077 1.003.089.405.091.46.202.55.242.163.073.389.183.504.239.086.047.269.098.251.15a.185.185 0 0 1-.079.043c-.037.008-.096 0-.129-.003a.29.29 0 0 1-.084-.022c-.038-.008-.127-.051-.171-.059-.173-.029-.429-.234-.63-.26-.33-.045-.809-.1-.928-.127-.266-.055-.4.099-.494.099-.272 0-.363.048-.391.048-.064-.005-.076-.084-.122-.134-.165.042-.031.163-.003.204-.156.062-.144-.039-.199-.135-.061-.044-.066.064-.041.212-.035.019-.297-.021-.342-.021-.084 0 .033-.044-.121.03-.006.004.051.095.008.135-.05.046-.225-.033-.259.014-.056.088-.027.135-.046.156-.107-.077-.261-.055-.373.038 0 .048-.337.135-.141.199.092.031.238.009.379.017.102.008.092.051.24.051.199-.004.285-.064.484-.082.107-.006.191.064.329.078.213.021.418.043.405.061-.005.003.129-.107.336-.082.043.004.225.106.349.146.054.016.129-.014.173-.011.05.002.066.038.134.06.13.045.188-.028.316.021.12.052.094.111.196.171.057.031.164.015.219.044.148.08.229.193.178.227-.074.003-.271-.069-.486-.098-.162-.02-.334.012-.482-.02-.118-.025-.217-.12-.277-.129-.125-.02-.353.02-.496-.049-.247-.116-.608.035-.817.033-.159-.003-.214-.063-.24-.059-.142.016-.269-.037-.382-.039-.117 0-.22.045-.307.033-.192-.025-.297-.063-.31-.053-.175.093-.325.079-.499.172-.021.022.566.125.077.125-.185 0-.36.105-.36.131-.002.135-.111.121-.111.292 0 .017.103.077.32.063.07-.003.155-.06.252-.071.033-.004.109-.024.223-.028.14-.011.321-.049.384-.06.09-.016.081-.093.228-.088.07 0 .147.063.229.069.118.016.191.016.297.021a.733.733 0 0 1 .298.088c-.009.007.169.007.219.032.084.034.046.108-.107.126-.067.01-.265.044-.405 0-.227-.067-.531-.033-.607-.018-.153.035-.35.006-.483.022-.138.017-.213.12-.317.14-.159.021-.233-.002-.368-.008-.106-.002.007.252-.094.277-.259.063-.275.133-.278.149-.023.077-.072-.03-.135.03-.281.258.253.184-.141.15.021.098-.002.109.02.16.015.042.028.146.094.176.129-.032.24-.037.328-.092.115-.063.199-.178.293-.207.023.02.053.098.079.117.134.027.081-.232.213-.256.138-.019.19.065.315.052.131-.019.287-.203.445-.214.146-.012.192.083.461.019.091-.026.149-.142.271-.058.117.079.295.047.389.117.074.052.037.073.107.096.045.012.084-.082.161-.101.088-.017.081.116.3.046.045-.017.163.095.197.104.032.01.172-.217.166-.118-.004.144.092.063.131.099.066.058-.043.076.016.117.078.051.625.205.666.295.074.176.166-.048.26.035.047.035.104-.08.205.009.049.04.043.228.085.268.044.039.085-.025.124.016.049.049 0 .124.036.169.084.082.228-.057.257.016.063.152.175.115.193.021.034.033.057.313.145.377.021.016-.123.004-.123.028.006.071.006.084.016.131.014.081.066-.028.088.021.013.033.051-.139.063-.105.025.063.053.119.082.178a.769.769 0 0 0 .201.208c.07-.009.17-.098.186.101.042.033.104.275.153.416.038.108.088.101.138.203.068.14-.021.213.018.272.026-.003.326.052.348.047.048.243-.027.196-.027.333.063.156.111.03.179.104.067.076.128.334.174.438.028.078-.054.168-.024.246.047.129.166.16.206.26.084.203.089.137.132.316.028.122-.079.039-.057.166.035.199.135.646.047.842-.027.051.088.432.094.473.02.225-.132.172-.135.38 0 .136.096.411.094.544-.005.141 0 0-.01.137-.005.061-.05.016-.055.074-.017.197-.07.199-.101.387-.015.104-.125.191-.144.291-.018.088.063.299.05.383-.01.094-.11.057-.104.182.007.146.069.394.034.502-.027.084-.178.179-.219.25-.104.172.031.357-.021.586-.012.063-.097.065-.128.157-.038.109-.013.235-.066.338-.058.116-.132.192-.165.282-.065.16.115.215.045.367-.096.206-.324.529-.408.701-.043.1-.072.221-.078.286-.018.14-.078-.001-.03.376.003.043-.116.037-.144.084-.048.078-.033.207-.092.262-.063.067-.121.076-.156.14-.025.053.006.158-.025.224-.031.07-.156.086-.156.143 0 .07.088.092.078.115-.024.051-.174.154-.212.234-.041.082.034.136-.015.199-.033.043-.105 0-.124.04.011.091.017.171.031.261-.053.101-.19.078-.286.157-.084.075-.055.156-.107.272a1.85 1.85 0 0 0-.163.566c-.067.01-.124.037-.192.045.012.068.006.121.016.188-.076-.014-.191.295-.244.457-.016.072.025-.102 0 0-.045.191-.275.375-.362.535-.053.092-.177.172-.21.229-.092.151-.034.268-.084.396-.102.236.063-.207-.113.221.012.091-.346.048-.334.138-.041.109-.131.392-.191.487-.063.101-.012.188-.131.231-.068.026-.047.127-.08.208-.08.175-.326.161-.538.349-.063.06 0 .12-.066.189-.144.142-.169.044-.222.397-.011.101-.285.293-.332.389-.047.095.031-.091 0 0-.053.145-.145.176-.199.307-.025.057.012.079-.018.128-.063.106-.34.267-.441.375-.096.103-.012.155-.117.237-.057.045-.024.033-.074.08-.17.152-.316.452-.454.637-.036.041-.168.07-.235.145-.107.123-.127.303-.213.385-.096.085-.07.004-.156.096-.148.146-.246.289-.453.386-.092.042-.027.114-.084.189-.041.048-.181.099-.219.19-.063.129 0 .146-.066.254-.056.092-.117.08-.168.139-.104.119-.079.182-.209.273-.101.068-.209.08-.285.176-.074.09-.09.232-.146.332-.041.075-.271.288-.428.443-.101.104-.18.258-.266.355-.061.074-.115.085-.156.145-.07.096-.044.174-.086.221-.034.041-.104.098-.113.154-.005.033-.026.096-.012.124.014.028.066-.011.086.004a.197.197 0 0 0 .195-.061c.035-.042.016-.083.063-.113.086-.051.22.021.304-.051.067-.058.079-.137.149-.196.066-.052.185-.049.244-.105.066-.061.065-.107.128-.168.07-.063.182-.057.241-.118.058-.056-.006-.074.048-.122.049-.045.173-.008.212-.045.056-.051-.021-.096.021-.127.079-.059.189.021.292-.063.093-.066.093-.223.185-.264.145-.068.283-.021.396-.092.088-.055.057-.143.132-.195.161-.044.14-.017.297-.059.097-.225.197-.138.303-.221.106-.091.138-.184.214-.246.115-.081.228-.041.35-.151.125-.119.375-.337.43-.448.201-.055.314-.196.518-.244.093-.064.08-.137.093-.207l.182.031c.046-.043.065-.167.112-.244.048-.077.222-.057.267-.139.065-.1.089-.192.153-.24.135-.02.184.002.322-.015.184-.124-.039-.206.33-.351.008-.055.008-.169.238-.321.088-.054.193.017.293-.063a1.13 1.13 0 0 0 .092-.079c.062-.053-.05-.266.013-.312.077-.055.19.049.257-.005.049-.034-.029-.122.015-.153.038-.031.138.036.17.008.044-.034.03-.171.063-.198.073-.063.192-.029.199-.055-.009-.069-.013-.125-.022-.193.035-.007.191-.032.263-.098.048-.04-.024-.152.028-.178.092-.049.19.002.244-.038.093-.069-.016-.073.075-.139.056-.038.159-.021.202-.06.083-.074.094-.15.117-.199.074-.148.168-.195.283-.299.069-.01.217-.039.25-.123.136-.203.226-.313.359-.517.146.026.194-.005.254-.046.156-.111.242-.408.369-.545.102-.111.277-.133.381-.232.154-.15.191-.453.338-.602.095-.096.18-.084.241-.128.08-.065.075-.144.125-.194.054-.047.165-.066.24-.139.065-.053.013-.266.091-.299.137-.057.24-.168.338-.299.075-.092.065-.292.132-.386.04-.048.124-.028.159-.075.091-.119.141-.236.229-.359.081-.117.096-.236.178-.355.081-.117.2-.251.277-.367.092-.134.242-.25.326-.383.056-.082.035-.213.087-.297.045-.072.05-.025.094-.099.04-.069.026-.13.066-.2.031-.053.097-.063.128-.114.063-.108.006-.136.064-.245.045-.078.164-.063.204-.144.058-.106.038-.239.095-.343.072-.151.087-.063.156-.214.084-.173.104-.37.181-.544.066-.161.054-.355.12-.516.033-.076.211-.008.242-.09.029-.076-.002-.174.025-.252.058-.16.154-.126.204-.291.071-.213.05-.565.106-.781.064-.241.125-.189.16-.3.061-.178-.051-.14.005-.317.044-.149.19-.211.222-.482.016-.133-.049-.218-.016-.345.057-.204.176-.646.217-1.046.025-.268-.054-.459-.02-.711.01-.161.108-.174.12-.325"/><path fill="#D97D0F" d="M18.196 27.3c-.098-.035-.066-.15-.066-.234-.268-.19-.411.02-.49-.19-.069-.179-.231.033-.319-.085-.043-.058.047-.16-.17-.248-.115-.044.002-.234-.045-.311-.078-.118-.271-.111-.385-.197-.166-.129-.229-.143-.293-.326-.033-.088-.083-.105-.104-.227-.015-.087.091-.087.091-.191 0-.069-.178-.076-.199-.178-.013-.061.074-.069.108-.128.022-.047-.007-.147-.003-.169-.181-.012-.273.033-.354-.018-.052-.035-.013-.168-.049-.218-.05-.081-.16-.094-.146-.194.009-.056.053-.029.071-.086.035-.114-.012-.377.025-.514.023-.084.091-.064.119-.125a.45.45 0 0 0 .01-.312c-.043-.149-.258.005-.229-.448.039-.031.074 0 .114-.028.05-.047.026-.204.073-.251.043-.038.154-.032.197-.072.094-.091.023-.093.112-.184.071-.07.286-.056.36-.13.105-.108.134-.351.236-.463.049-.053.066-.165.116-.216.084-.08.171-.025.262-.093.084-.063.125-.138.209-.213.269-.234.435-.153.578-.231.11-.061.254-.068.321-.123.049-.043.099-.133.178-.161.036.009.089-.017.086.056-.005.078.129.01.226.028.019-.122.104-.048.147-.093.033-.039.106-.127.141-.165 0 0 .125.011.191.146.043.091.247.023.412.033.08.006.047.084.121.089.242.026.47-.025.47-.025.024 0 .165-.008.144.078.15 0 .09.175.159.257.066.078.191-.027.271.031.069.056.085.24.139.283.048.041.094.017.149.039.063.025.01.117.078.136.047.011.123-.01.173.007.065.022.103.085.192.14.11.069.319-.028.389.125.06.071.038.197.047.302.009.084.072-.068.08.201.086.086.115-.023.221.016.039.012-.01.093.047.152.039.041.131-.065.199.081v.416c.057.087.098-.011.164.048.146.13.05.395.063.571.008.112-.013.336.008.47.014.104.073.121.057.202-.033.134-.129.151-.193.265-.063.109-.119.191-.244.191-.082 0 .006.218-.02.34-.021.097-.115.099-.166.158-.037.037-.037.135-.056.168.06.057.132.085.151.115a.369.369 0 0 1 .008.219c-.033.03-.07.027-.102.055-.083.09-.033.237-.107.337-.049.064-.199.017-.248.079-.043.057.013.193-.029.253-.038.06-.148.003-.191.063-.047.056-.01.241-.057.302-.037.051-.109-.038-.149.005-.036.035.028.116-.007.155-.037.037-.091-.006-.135.031-.067.051-.023.053-.094.109-.046.037-.139.004-.211.044-.043.021-.045.108-.096.152-.037.024-.08-.019-.125-.007-.05.018-.104.088-.122.097-.212 0-.321-.009-.53-.009-.063.021-.092.09-.163.143a.583.583 0 0 1-.54.068c-.115-.045-.088-.131-.197-.178-.144-.061-.4-.018-.575-.051-.095-.02-.094-.17-.161-.205-.089-.043-.184.098-.343.041"/><path fill="#117BBE" d="M18.165 10.421a1.19 1.19 0 0 0-.196-.512c-.079-.125-.138-.226-.164-.252-.088-.119-.088-.163-.158-.247-.004-.003-.104-.021-.107-.028-.143-.197-.012-.039-.143-.197-.037-.043-.061-.041-.104-.065-.951-.633-1.004-.714-1.004-.722-.006-.037.432.064.543.118.02.013.18.175.342.272.152.092.306.113.332.135.057.043.002.193.071.25.077.068.135.11.209.172.076.057.138.172.2.228.082.079.176.137.17.121-.026-.112-.135-.272-.17-.37-.009-.02-.04-.164-.111-.295-.055-.09-.17-.068-.221-.162-.064-.119-.051-.092-.134-.202-.091-.118-.247-.142-.319-.228-.029-.035-.219-.13-.26-.168-.058-.045-.172-.262-.213-.336.008 0-.008-.002 0 0-.084-.044-.38-.248-.424-.324l-.427-.259-.511-.214-.346-.231-.035-.144.382.206.419.054.254.093.369.118.359.26c.111.055.188.24.297.387.088.064.221.271.264.289.04.021.04-.105.086-.086.138.065-.006.13.057.164.057.034.143.14.223.213.025.027.064-.021.09.006.013.008.125.236.138.248.106.105.075.008.053-.048.028.07-.058-.077-.077-.148-.031-.099-.007-.252-.038-.343-.024-.064-.034.016-.06-.053-.03-.084-.257-.283-.291-.365-.031-.078-.1-.033-.135-.113-.021-.047-.009-.107-.033-.156-.035-.076-.066-.014-.105-.089-.02-.041-.026-.144-.048-.185-.022-.041-.263-.236-.284-.275-.05-.092-.32-.307-.498-.355-.072-.02-.7-.318-.741-.381-.053-.084.183-.076.633.064.031.01.185.107.337.191.096.051.191.059.26.159.24.362.516.321.476.273-.042-.063-.058-.185-.104-.243-.06-.064-.233-.246-.288-.309-.004-.006.074-.066-.003-.099-.075-.038-.254-.086-.278-.104-.145-.105-.198-.277-.336-.289-.183-.016-.277-.168-.309-.203-.044-.045-.057-.048-.102-.088-.064-.063-.18-.016-.246-.072-.059-.05-.027-.164-.088-.211-.053-.043-.129 0-.182-.041-.156-.119-.086-.238-.17-.307-.076-.063-.127-.051-.207-.109-.06-.048-.242-.018-.307-.059-.094-.07-.072-.092-.168-.154-.089-.056-.166 0-.254-.053-.051-.029.012-.146-.037-.17-.007-.008-.073-.018-.104.004-.053.03-.005.137-.108.092-.038-.02.024-.158-.025-.148-.388.082-.174-.094-.258-.109-.099-.016-.107.016-.196 0-.067-.009.054-.182-.102-.069-.091.063-.241.05-.339.038-.125-.02-.027-.145-.193-.119-.135.021-.285.066-.406.039-.1-.021.021-.171-.073-.195-.089-.025-.171.033-.253.006-.074-.029-.066-.104-.139-.139-.071-.039-.252-.008-.318-.055-.02-.031-.07-.103-.077-.117-.024-.053.06-.064.065-.217-.049.008-.166-.006-.207.027-.055.043-.031.139-.084.152-.06.014-.13-.098-.171-.066-.053.041-.035.139-.081.197-.034.039-.098-.021-.137.035-.058-.086.012-.094-.02-.16-.051-.082-.114-.047-.142-.001-.04.067-.035.212-.101.245-.028.02-.121-.02-.196-.016-.059.004-.099.056-.135.043-.067-.018-.026-.07-.087-.07-.072 0-.091.105-.162.094-.123-.016-.201-.119-.302-.127-.092-.004-.21.082-.278.127-.037.024.012.072-.01.12-.037-.007-.115.052-.129.022-.105-.216-.173-.066-.227-.131-.025-.027.007-.097-.017-.14-.102-.006-.098-.006-.158.075-.031.043-.254.013-.247.101-.132.011-.319 0-.394.042-.055.036-.006.125-.038.158-.044.046-.08.053-.081.103-.004.062.112.09.076.163 0 .025-.043.012-.099.036-.131-.059-.033-.088-.092-.199-.057-.116-.047-.13-.12-.101-.011.028-.067.096-.062.135.01.036.084.036.066.067-.022.033-.071.012-.118.041a.408.408 0 0 0-.123.15c-.025.044.032.084 0 .119-.034.033-.149-.004-.178.03-.037.039.023.082-.022.123-.02.019-.047-.002-.066.016.004.023.004.047.006.07-.019-.021-.064.03-.09.004-.031-.046.009-.169-.021-.201-.06-.03-.198.011-.416.036-.031.047-.026.183-.02.275-.14.027-.387.141-.576.274-.053.037-.036.098-.086.133-.079.051-.119-.053-.257.102-.046.047.031.1-.013.131-.047.035-.074-.088-.105-.059-.051.045-.06.072-.078.098-.061.119.052-.016.071.189-.05-.006-.165.043-.187.041-.044-.006-.025-.059-.076-.088-.061.026-.15.001-.152.026-.033.171.115.109.08.191-.006.004-.039-.008-.062.02-.018.018-.025.076-.041.076-.038-.002-.053-.101-.078-.075-.044.047-.026.176-.069.155-.137-.072-.256-.09-.213-.047.141.141-.013.144-.097.135-.124-.017-.067.041-.108.074a.332.332 0 0 0-.069.008c.05.041.101.088.149.131-.103.075-.003.003-.207.015.076.16.035.115.155.199-.088.094-.182.121-.257.237l-.067.002.148.131c-.08.115-.006-.03-.137.012 0 .021.002.047.004.069-.021.024-.041.051-.063.075.178.021.061.01.277-.023.006.08-.044.2-.141.213-.065.006-.099-.078-.165-.102-.075-.024-.182.013-.182.022-.008.049.196.109.183.146-.022.08-.083.096-.115.154-.055.091-.166.109-.204.227a1.49 1.49 0 0 0-.055.203c-.019.095.082.234.058.328-.019.076-.16.138-.175.211-.026.101.109.06.078.154-.035.102-.112.123-.157.213-.118.224.026.362-.046.505-.111.204-.129.266-.211.478a5.733 5.733 0 0 0-.18.653c.021.281.037.45.063.731.012.148-.047.315-.035.486.013.135.09.276.09.368 0 .189-.041.207-.015.39.031.197.135.347.209.56.041.132.056.328.094.465.019.057.05.037.072.104.019.233.025.334.048.568.012.031.076.109.115.199.028.074.041.289.05.316.056.098.075.054.13.181.064.147.079.284.137.396.081.154.12.129.175.266.036.182.077.369.115.555.065.104.19.148.285.293.075.111.118.288.187.382.061.081.125.105.164.192.012.162.029.255.043.418.063.123.162.191.247.331.075.122.134.383.231.479.078.079.16.034.252.081.066.035.141.159.186.209.07.075.121.072.162.155.072.147-.049.188-.018.261.015.041.084.098.133.189.051.098.066.23.107.287.135.193.459.249.578.467.149.275.115.481.3.69.087.098.269.278.413.31.131.027.201-.031.287.047.088.084.047.304.132.383.079.047.106-.006.25.009.017.1-.015.298.053.401.054.076.139-.025.223.025.09.059.171.271.235.355.067.095.027.234.103.318.081.09.169.063.255.142.089.083.197.14.281.219.117.106.048.185.163.283.116.101.288.077.388.181.039.045-.004.116.02.172.027.059.115.104.149.15.069-.004.139-.011.21-.018.025.1-.009.162.03.219.032.049.139.098.173.154.047.084.063.227.134.286.095.075.285.095.364.202.06.078.115.197.108.265-.007.085-.084.118-.038.183a.965.965 0 0 0 .177.195c.062.057.122.19.19.226.107.062.209.049.277.132a.427.427 0 0 0 .01.4c.069.109.216.185.303.294.107.138.104.282.242.391.189.15.4.218.475.313.096.127.15.301.197.446.027.101.043.171.112.267.039.051.067.025.134.129.057.084.104.346.172.367.229.073.116.211.213.322.098.109.144.048.225.148.041.086-.057.063-.064.096-.01.04.021.082.012.123.145-.02.092.193.19.189.112-.007.125.019.16.057.046.051-.013.084.031.119.044.043.036.004.071.027.047.055-.009.262.054.398.013.028.075-.008.108.028.029.031.017.154.042.178.041.031.094.017.128.065.038.045-.006.165.037.211.016.023.104.021.121.043.022.026-.005.092.013.117.032.041.066.026.081.067.02.108.041.175.017.259-.017.062-.098.046-.116.156-.012.045.016.096.01.145.01.032.102.06.15.131.037.055-.01.135.06.205.028.028.097.026.103.043.025.051.013.285.034.391.014.07.063 0 .072.087.019.142.004.31.054.409.031.069.006.015.075.054.084.048.058.122.075.209.014.07.059.095.074.167.02.111.028.307.041.421.009.069-.048.134-.047.206.01.182.078.138.084.213.006.061-.047.049-.059.107-.01.068.021.209.021.271.004.057-.047.035-.057.087-.016.095.01.041.009.127-.003.038-.062.038-.062.071-.004.09.084.088.075.163-.003.032-.054.008-.055.038-.024.121.06.206.017.282-.008.026-.051.024-.051.049 0 .286.01.339.035.579.022 0 .088-.022.109-.023.021-.037.016-.104.066-.142.068-.054.127-.069.158-.12.051-.08.004-.139.048-.201.028-.043.06-.012.081-.059.037-.066.006-.15.04-.217.031-.061.081-.102.104-.168.02-.051-.025-.242-.011-.287.025-.072.093-.045.112-.117.017-.06-.015-.132.002-.193.027-.105.084-.055.108-.178.013-.074.03-.201.043-.285.014-.096-.06-.595-.043-.691.009-.068.098.086.116-.183.006-.05-.055-.285-.042-.351.01-.055.06-.002.063-.047.02-.133-.037-.328-.014-.459.018-.105-.053-.285-.105-.353a.52.52 0 0 1-.084-.374 2.342 2.342 0 0 0 0-.51c-.021-.145-.145-.256-.168-.359-.026-.119.067-.091.036-.209-.015-.051-.112-.055-.129-.104-.018-.052-.065-.136-.013-.184.045-.041.082-.293.026-.456-.034-.099-.2-.232-.179-.329.051-.23.054-.496-.013-.672-.028-.078-.087-.165-.128-.25-.064-.142-.053-.244-.129-.357-.051-.074-.162-.176-.199-.244-.197-.391-.028-.626-.221-.982-.029-.049-.085-.265-.146-.375-.063-.108-.13-.108-.161-.15-.05-.075-.066-.223-.132-.348-.043-.088-.121-.387-.162-.462-.053-.087-.109-.071-.15-.155-.044-.087-.025-.119-.066-.19-.036-.057-.074-.019-.105-.072-.043-.073-.068-.364-.118-.47-.06-.132-.138-.085-.155-.18-.014-.074.117.016.07-.111-.025-.064-.156-.068-.209-.157-.047-.071-.021-.229-.068-.276-.042-.045-.078.039-.113-.016-.037-.063.006-.176-.031-.244-.035-.061-.103-.174-.133-.238-.051-.106-.127-.186-.174-.279-.032-.078-.105-.054-.129-.137-.027-.074.01-.101-.006-.178-.016-.002-.152.056-.2.02-.058-.043-.031-.183-.087-.199-.081-.016-.012.064-.023-.038-.031-.237-.139-.348-.195-.407-.125-.131-.054-.008-.166-.162-.063-.086-.062-.184-.115-.261-.075-.096-.1.003-.162-.091-.063-.096-.088-.238-.136-.317-.056-.085-.106-.026-.143-.096-.052-.103.044-.044.04-.093-.027-.027.009-.055-.035-.097-.049-.044-.125.013-.151.007-.083-.016.08-.17-.201-.131-.019 0-.058-.273-.075-.287-.054-.055-.16-.042-.196-.127-.021-.057.005-.134-.009-.209-.055-.006-.156.057-.199.007-.036-.042-.012-.198-.041-.233-.058-.067-.103-.074-.164-.158-.035-.047-.135-.051-.166-.105-.04-.06-.04-.149-.07-.211-.018-.029-.045.029-.061-.004-.033-.065.018-.261-.06-.271-.106-.009-.2-.218-.237-.298-.034-.072-.034-.178-.066-.24-.009-.021-.131-.105-.146-.164-.016-.055.098-.105.068-.156-.043-.08-.112-.107-.172-.188-.063-.085-.168-.104-.226-.198-.049-.079-.049-.223-.097-.31-.046-.072-.046.029-.086-.056-.055-.105-.023-.238-.079-.353-.048-.096-.112-.067-.159-.175-.032-.082-.086-.57-.119-.647-.021-.05-.148-.065-.197-.135-.047-.068-.016-.192-.035-.233-.031-.103-.07-.021-.092-.108-.035-.152-.082-.421.031-.444.018-.02-.039-.115-.017-.143.024-.035.065.006.091-.025.006-.063-.047-.037-.091-.1-.034-.043.013-.1 0-.144-.015-.058-.263-.155-.267-.227.001-.071.075-.12.063-.194-.025-.13-.082-.374-.034-.496.031-.075.128.091.187-.165-.044-.023.018-.068-.016-.076-.027-.004-.135.033-.197.024-.015-.047-.01-.173-.015-.195-.011-.043-.032.038-.071-.005-.031-.185-.022-.179.17-.274-.005-.161-.115-.058-.158-.12-.034-.05-.021-.133.003-.247.046-.026.088-.054.132-.082.002-.072-.051-.241-.051-.317 0-.104.097.068.097-.037.001-.079-.044-.344-.044-.422.003-.009.063.029.135-.1.028-.045-.07-.301-.051-.341.004-.025.035.021.041.001.014-.033.031.023.041-.01.016-.075-.041-.141-.018-.194.033-.071.132-.044.132-.044.023-.18-.082-.109-.146-.174.014-.02-.028-.102 0-.131.038-.029.156-.011.182-.043.038-.045.017-.085.063-.119.068-.049.109-.022.172-.115.047-.067.072-.326.124-.387.042-.047.163-.038.196-.084.04-.055.012-.055.04-.105.019-.035-.103-.09-.085-.122.027-.063.343-.099.343-.151.001-.038-.063-.055-.08-.082.01-.024-.035-.115.006-.137.035-.023.167.018.179-.008.029-.06-.055-.136 0-.163.078-.044.215.011.266-.021.105-.06.066-.121.169-.141.115-.017.118.128.29 0 .159-.11.303-.349.485-.427.194-.049.118.039.209.055.069-.035.06-.207.432-.193.116.004.376-.002.476-.033.053-.016.075-.117.116-.152.052-.038.108-.008.133-.002.026.023.044.098.091.125.038.023.113-.008.135.014.051.041.028.074.076.119.178.023.135-.147.197-.16.045-.01.148-.025.18 0 .038.027.004.013.053.031.063.025.166-.023.264-.019.007.071.037.089.041.158-.023.015.015.067.087.034.081-.037.175-.104.248-.092.08.015.085.139.156.135.102 0 .134-.107.212-.092.122.025.105.072.216.115.108.041.094.114.222.135.068.014.175-.021.246-.019.043.142-.031.19.089.205.035.019.206.057.28.072.061.013.017.097.084.113.043.011.094-.023.135 0 .025.046.051.143.076.187.029.045.059.037.084.082.053.002.186-.037.244-.024.047.007.018.067.063.069.106.009.204-.014.298-.008.015.006.05.145.058.193.008.043.089 0 .111.034.021.042.012.109.037.134.084.081.146-.044.246.101.032.049.031.278.063.323.063.09.054.037.121.117.066.08.136-.027.198.056.056.071-.061.004-.007.065.101.129.431.227.466.273a.135.135 0 0 0 .156.088c-.007-.052-.051-.128-.078-.308"/><g fill="#595B52"><path d="m46.826 15.863-1.188 1.234-3.302-3.217a7.576 7.576 0 0 1-1.553 1.959c-.599.536-1.201.975-1.796 1.309l-1.153-1.316a6.865 6.865 0 0 0 1.666-1.139 6.497 6.497 0 0 0 1.126-1.367c.298-.475.511-.964.645-1.461.138-.497.205-.984.205-1.463V8.125h1.82v1.951c0 .379-.024.743-.071 1.09a10.83 10.83 0 0 1-.19 1.007l3.791 3.69zm3.771 6.135h-1.726v-9.253h-3.592v-1.659h3.592V6.663h1.726v15.335zM65.92 14.977h-6.162v.811h3.058v3.821h-5.899v.732h6.125v1.656h-7.913V18.03h5.884v-.649h-5.967v-1.594h2.975v-.811h-6.034v-1.629H65.92v1.63zM62.666 9.74c0 .468-.098.894-.297 1.279a3.302 3.302 0 0 1-.805.998c-.35.274-.757.48-1.229.633s-.982.229-1.535.229c-.521 0-1.012-.07-1.47-.211a3.855 3.855 0 0 1-1.231-.62 2.956 2.956 0 0 1-.82-.982 2.773 2.773 0 0 1-.299-1.309c0-.487.098-.925.291-1.324.195-.396.466-.733.813-1.018.334-.28.737-.496 1.202-.649.467-.151.97-.227 1.514-.227a4.85 4.85 0 0 1 1.503.227c.473.153.88.369 1.228.649.349.272.621.607.83 1.003.204.394.305.837.305 1.322zm-1.787-.015c0-.511-.203-.911-.615-1.202-.412-.295-.9-.438-1.463-.438-.588 0-1.076.142-1.47.429-.399.289-.595.691-.595 1.212 0 .498.195.89.595 1.169.394.283.882.424 1.47.424.563 0 1.051-.129 1.463-.393.412-.258.615-.66.615-1.201zM75.145 15.914l-1.186 1.234-3.281-3.236a7.308 7.308 0 0 1-1.538 1.977c-.6.537-1.212.972-1.831 1.308l-1.154-1.317a7.907 7.907 0 0 0 1.686-1.186 6.995 6.995 0 0 0 1.129-1.35c.281-.475.49-.957.626-1.447a5.43 5.43 0 0 0 .204-1.445V8.125h1.821v1.999c0 .38-.024.741-.075 1.083a9.151 9.151 0 0 1-.188.983l3.787 3.724zm3.562 6.084h-1.74V6.663h1.74v15.335zM116.279 15.929l-1.223 1.202-2.388-2.649a10.656 10.656 0 0 1-1.511 1.529 8.377 8.377 0 0 1-1.754 1.12l-1.238-1.284a9.477 9.477 0 0 0 1.707-1.105c.521-.421.984-.871 1.397-1.347a8.597 8.597 0 0 0 1.017-1.499 7.685 7.685 0 0 0 .626-1.545h-3.821V8.708h6.049a9.87 9.87 0 0 1-.496 2.221c-.256.73-.576 1.433-.966 2.104l2.601 2.896zm5.429 6.069h-1.722v-8.75h-1.725v7.48h-1.721V6.989h1.721v4.614h1.725v-4.94h1.722v15.335zM131.084 14.97h-7.626V7.882h6.454v1.643h-4.746v3.818h5.918v1.627zm3.527 7.028h-8.113v-5.256h1.756v3.6h6.357v1.656zm2.342-10.246h-2.539v5.606h-1.736V6.663h1.736v3.43h2.539v1.659zM93.906 15.98H79.98v-1.643h5.938v-1.139h-2.957V7h1.719v1.823h4.281V7h1.723v6.199H87.69v1.139h6.217v1.642zm-3.074 6.018h-1.741v-3.432h-6.229v-1.644h7.97v5.076zm-1.871-10.424v-1.141H84.68v1.141h4.281zM102.539 17.063l-2.896-2.866a12.31 12.31 0 0 1-1.708 1.679c-.615.497-1.252.91-1.904 1.237l-1.234-1.256a10.135 10.135 0 0 0 1.764-1.105 11.63 11.63 0 0 0 1.521-1.397c.457-.487.854-.99 1.188-1.505a6.938 6.938 0 0 0 .752-1.488H95.71V8.718h6.554a8.494 8.494 0 0 1-.545 2.08c-.275.697-.625 1.37-1.051 2.02.176.185.332.348.473.486.15.143.322.301.504.48.185.178.368.365.553.559.197.198.384.387.57.564.184.178.349.338.486.479.143.142.303.297.49.47l-1.205 1.207zm4.346 4.935h-1.726V6.668h1.726v15.33z"/><g><path d="M42.955 30.669c0 .624-.213 1.082-.641 1.382-.424.302-1.002.449-1.734.449a3.56 3.56 0 0 1-.427-.024 6.566 6.566 0 0 1-.421-.062c-.135-.026-.272-.059-.404-.089-.133-.032-.256-.067-.372-.099V31.3l.261.108c.102.044.227.083.371.126.144.04.304.072.484.105.176.027.376.042.592.042.162 0 .318-.015.473-.042.152-.033.29-.084.41-.158a.796.796 0 0 0 .28-.279.824.824 0 0 0 .108-.438.846.846 0 0 0-.1-.427.884.884 0 0 0-.256-.296 1.64 1.64 0 0 0-.345-.225 7.046 7.046 0 0 1-.369-.184 18.018 18.018 0 0 1-.646-.31 4.38 4.38 0 0 1-.642-.397 2.09 2.09 0 0 1-.488-.502 1.148 1.148 0 0 1-.194-.666c0-.563.194-.98.582-1.252.389-.271.889-.406 1.498-.406.144 0 .29.013.437.03.147.022.29.046.427.076l.384.098c.125.032.237.061.334.082v.934a3.809 3.809 0 0 0-.665-.243 4.74 4.74 0 0 0-.977-.147c-.293 0-.534.065-.725.19-.189.128-.283.318-.283.572 0 .119.023.223.077.311.05.085.119.162.206.23.087.07.188.133.297.191l.351.182.647.302c.137.088.291.173.459.259.166.087.323.189.475.313.145.127.267.283.367.473.102.194.157.43.169.717zM47.473 29.912c.014.459-.016.561-.016.561h-3.038c.028.18.081.348.159.502.078.156.188.294.332.415.143.115.324.206.546.277.217.067.481.103.792.103.03 0 .084-.006.159-.013a3.37 3.37 0 0 0 .271-.048c.104-.017.214-.046.329-.089.115-.038.225-.091.328-.153v.701a2.264 2.264 0 0 1-.756.271 3.656 3.656 0 0 1-.842.047 3.36 3.36 0 0 1-.794-.15 2.03 2.03 0 0 1-1.253-1.098 2.539 2.539 0 0 1-.239-1.117c0-.641.179-1.162.544-1.563.36-.405.895-.605 1.604-.605.549 0 .992.176 1.336.529.341.355.533.84.538 1.43zm-.924-.173a1.2 1.2 0 0 0-.061-.371 1.044 1.044 0 0 0-.172-.337.93.93 0 0 0-.742-.336c-.329 0-.597.09-.806.271-.213.182-.336.439-.377.772h2.158zM73.553 29.912c.013.459-.016.561-.016.561h-3.04c.028.18.081.348.16.502.077.156.188.294.334.415.142.115.325.206.544.277.217.067.482.103.792.103.031 0 .083-.006.161-.013.076-.01.169-.026.273-.048.104-.017.211-.046.327-.089.114-.038.226-.091.328-.153v.701c-.226.131-.478.223-.756.271s-.561.063-.842.047a3.37 3.37 0 0 1-.794-.15 2.041 2.041 0 0 1-.639-.328 2.066 2.066 0 0 1-.614-.77 2.54 2.54 0 0 1-.241-1.117c0-.641.182-1.162.547-1.563.359-.405.895-.605 1.602-.605.55 0 .994.176 1.334.529.344.355.536.84.54 1.43zm-.923-.173c0-.12-.019-.245-.058-.371a1.134 1.134 0 0 0-.174-.337.947.947 0 0 0-.744-.336c-.329 0-.599.09-.808.271-.212.182-.336.439-.376.772h2.16zM91.039 29.912c.012.459-.018.561-.018.561h-3.04c.031.18.081.348.161.502.076.156.189.294.332.415.144.115.326.206.544.277.22.067.485.103.797.103.026 0 .081-.006.157-.013.078-.01.169-.026.271-.048.104-.017.213-.046.329-.089.115-.038.223-.091.328-.153v.701c-.223.131-.478.223-.756.271s-.561.063-.842.047a3.37 3.37 0 0 1-.794-.15 2.134 2.134 0 0 1-.641-.328 2.021 2.021 0 0 1-.611-.77 2.526 2.526 0 0 1-.242-1.117c0-.641.18-1.162.544-1.563.362-.405.897-.605 1.604-.605.549 0 .994.176 1.334.529.346.355.537.84.543 1.43zm-.925-.173c0-.12-.019-.245-.06-.371a1.149 1.149 0 0 0-.17-.337c-.082-.098-.185-.176-.31-.24s-.269-.096-.435-.096c-.328 0-.6.09-.809.271-.208.182-.336.439-.373.772h2.157zM52.333 30.233c0 .684-.188 1.23-.563 1.639-.379.41-.904.614-1.583.614-.641 0-1.159-.191-1.557-.578-.396-.387-.597-.941-.597-1.668 0-.31.044-.604.131-.881.086-.275.216-.518.389-.723.178-.21.4-.373.672-.493.266-.12.58-.183.941-.183.682 0 1.213.207 1.594.619.382.411.573.963.573 1.654zm-.948 0c0-.196-.021-.384-.066-.566a1.431 1.431 0 0 0-.211-.485 1.04 1.04 0 0 0-.379-.346 1.152 1.152 0 0 0-.568-.131c-.214 0-.396.041-.551.125a1.109 1.109 0 0 0-.375.332 1.43 1.43 0 0 0-.211.492 2.573 2.573 0 0 0 .004 1.161c.047.181.118.342.213.481.102.137.229.246.387.325.159.081.348.122.564.122.215 0 .398-.043.549-.125a.988.988 0 0 0 .367-.335c.099-.136.168-.298.211-.478a2.41 2.41 0 0 0 .066-.572zM56.832 32.38h-.854v-.898h-.045c-.08.262-.228.491-.442.69-.219.204-.547.303-.988.303-.197 0-.381-.034-.55-.106s-.319-.17-.445-.3a1.307 1.307 0 0 1-.296-.449 1.395 1.395 0 0 1-.109-.562v-3.014h.873v2.705c0 .109.005.221.018.33.01.113.045.214.094.298a.617.617 0 0 0 .225.226c.098.06.229.086.398.086.334 0 .594-.119.784-.367.191-.242.324-.527.397-.85.018-.102.031-.205.042-.307.014-.101.023-.199.028-.298v-1.823h.871v4.336zM58.822 32.414h-.913v-6.206h.913v6.206zM69.219 26.195l-1.164 6.211h-1.08l-1.285-4.949h-.03l-1.232 4.949h-1.08l-1.27-6.211h.897l.968 4.994h.016l1.184-4.994h1.028l1.287 4.977h.017l.855-4.977h.889zM75.331 32.414h-.916v-6.206h.916v6.206zM79.266 27.068a8.468 8.468 0 0 0-.424-.086c-.113-.018-.243-.029-.387-.043-.156 0-.281.02-.379.057a.543.543 0 0 0-.25.202.754.754 0 0 0-.082.252c-.014.093-.019.202-.014.326v.32h1.236v.753H77.73v3.581h-.914v-3.581h-.776v-.753h.776v-.146c0-.208.012-.414.037-.619.025-.203.103-.393.219-.564a1.44 1.44 0 0 1 .482-.395c.202-.105.494-.162.866-.178.156 0 .296.013.425.031.125.02.266.046.42.074v.769zM82.963 32.38h-.923v-.466h-.011c-.029.034-.069.084-.124.146a1.017 1.017 0 0 1-.237.19 1.926 1.926 0 0 1-.398.154c-.16.046-.355.069-.586.069-.16 0-.321-.025-.479-.079a1.34 1.34 0 0 1-.418-.238 1.14 1.14 0 0 1-.303-.377 1.078 1.078 0 0 1-.113-.506c0-.333.111-.625.331-.876.223-.25.481-.417.772-.503.346-.104.658-.16.934-.161.275-.002.488-.002.632.004v-.242c0-.068-.009-.146-.018-.231a.83.83 0 0 0-.106-.285.579.579 0 0 0-.244-.207.916.916 0 0 0-.429-.088.89.89 0 0 0-.563.173c-.146.116-.221.288-.221.519h-.967c0-.185.035-.361.107-.537.074-.172.18-.324.324-.455.148-.133.332-.241.551-.32.219-.082.48-.122.777-.122.588 0 1.02.148 1.296.446.276.295.415.654.415 1.072v2.92zm-.923-1.683v-.303a8.206 8.206 0 0 0-.444 0 3.197 3.197 0 0 0-.499.06 1.282 1.282 0 0 0-.5.247.596.596 0 0 0-.251.488c0 .2.066.342.198.418.136.08.284.118.452.118.153 0 .332-.056.537-.166a.917.917 0 0 0 .436-.465c.018-.058.035-.118.049-.183.013-.062.022-.132.022-.214zM86.662 28.869c-.432 0-.807.078-1.123.239-.318.157-.518.421-.606.788a2.456 2.456 0 0 0-.063.342 4.007 4.007 0 0 0-.031.395v1.777h-.907v-4.344h.907v.881h.044c.033-.082.088-.188.165-.315a.968.968 0 0 1 .3-.325c.173-.113.346-.199.518-.254.174-.056.438-.08.797-.08v.896zM98.023 27.035h-2.611v1.717h2.508v.828h-2.508v2.832h-.947v-6.209h3.559v.832zM102.65 30.23c0 .685-.188 1.233-.564 1.642-.379.409-.906.611-1.586.611-.638 0-1.156-.19-1.551-.577-.399-.387-.598-.941-.598-1.666 0-.312.043-.604.129-.881.088-.277.216-.52.389-.727.18-.207.402-.37.668-.492.27-.121.584-.182.947-.182.678 0 1.211.207 1.592.616.385.416.574.966.574 1.656zm-.947 0c0-.196-.021-.383-.065-.566a1.55 1.55 0 0 0-.212-.488 1.107 1.107 0 0 0-.381-.344 1.158 1.158 0 0 0-.568-.129c-.214 0-.398.041-.549.124-.15.084-.275.194-.375.335a1.43 1.43 0 0 0-.213.492 2.56 2.56 0 0 0 .004 1.16c.049.182.118.34.216.479.099.138.228.247.384.326.162.08.348.121.566.121.215 0 .396-.041.547-.125a.994.994 0 0 0 .369-.332c.097-.138.168-.298.212-.479s.065-.372.065-.574zM107.119 32.38h-.854v-.898h-.043c-.082.259-.23.489-.444.69-.216.202-.548.303-.991.303a1.37 1.37 0 0 1-.547-.109 1.375 1.375 0 0 1-.742-.747 1.464 1.464 0 0 1-.109-.561v-3.016h.873v2.707c0 .105.006.217.018.33.012.11.043.213.094.298a.635.635 0 0 0 .226.226.789.789 0 0 0 .396.086c.336 0 .598-.122.787-.367.191-.244.324-.53.397-.851.018-.104.031-.207.044-.307.012-.101.019-.2.026-.299v-1.823h.87v4.338zM111.814 32.39h-.863v-2.358c0-.134-.002-.269-.005-.406s-.026-.269-.072-.388a.639.639 0 0 0-.209-.291c-.098-.078-.241-.125-.432-.141-.263-.02-.501.09-.707.328-.206.234-.36.536-.459.897a3.139 3.139 0 0 0-.052.305 2.38 2.38 0 0 0-.015.281v1.772h-.863v-4.346H109v.968h.044c.02-.058.054-.147.1-.264a1.32 1.32 0 0 1 .226-.358c.099-.115.226-.215.384-.307.158-.088.364-.133.617-.133.415 0 .757.124 1.033.371.273.247.41.592.41 1.035v3.035zM116.57 32.396h-.891v-.625h-.024a1.519 1.519 0 0 1-.073.174.794.794 0 0 1-.194.241 1.156 1.156 0 0 1-.368.22c-.152.061-.35.093-.593.093-.264 0-.505-.054-.724-.159a1.717 1.717 0 0 1-.568-.455 2.184 2.184 0 0 1-.363-.699 2.89 2.89 0 0 1-.131-.896c0-.157.004-.302.016-.43.013-.128.037-.258.07-.383.137-.554.373-.944.701-1.177a1.878 1.878 0 0 1 1.105-.344c.17 0 .324.028.453.086.13.057.24.127.331.207a1.266 1.266 0 0 1 .338.492h.024v-2.556h.891v6.211zm-.96-2.387c0-.103-.017-.228-.056-.377a1.541 1.541 0 0 0-.176-.432 1.119 1.119 0 0 0-.318-.354.758.758 0 0 0-.478-.146.908.908 0 0 0-.629.261c-.188.176-.31.428-.354.757a.976.976 0 0 0-.021.161c-.002.047-.006.099-.006.15a1.963 1.963 0 0 0-.006.151v.151c0 .168.016.336.055.507.035.167.098.32.186.46.081.144.188.258.316.346a.84.84 0 0 0 .469.127.764.764 0 0 0 .627-.311 1.61 1.61 0 0 0 .322-.723c.02-.104.033-.22.048-.348a3.69 3.69 0 0 0 .021-.38zM120.924 32.38H120v-.469h-.009a3.16 3.16 0 0 1-.125.147 1.038 1.038 0 0 1-.237.19 1.92 1.92 0 0 1-.398.156 2.229 2.229 0 0 1-.585.069c-.164 0-.321-.03-.483-.081a1.373 1.373 0 0 1-.415-.239 1.094 1.094 0 0 1-.417-.88c0-.336.113-.627.336-.879.221-.25.478-.416.771-.504.345-.104.657-.157.933-.159.275-.001.484 0 .631.003v-.242c0-.065-.006-.146-.019-.23a.776.776 0 0 0-.103-.287.612.612 0 0 0-.245-.205.932.932 0 0 0-.427-.088c-.231 0-.42.058-.566.173-.15.115-.219.288-.219.519h-.969c0-.186.036-.362.105-.535.074-.174.182-.326.328-.457a1.68 1.68 0 0 1 .55-.323c.22-.078.478-.12.779-.12.585 0 1.019.151 1.294.447.275.295.414.654.414 1.074v2.92zM120 30.695v-.304a11.037 11.037 0 0 0-.446 0 3.12 3.12 0 0 0-.495.063 1.199 1.199 0 0 0-.5.245.595.595 0 0 0-.25.488c0 .202.063.342.197.418a.86.86 0 0 0 .449.118c.154 0 .336-.056.539-.165a.94.94 0 0 0 .438-.465c.016-.059.031-.119.045-.182a.847.847 0 0 0 .023-.216zM124.393 28.818h-1.232v2.083c0 .109.002.212.01.315.01.099.031.188.066.262.039.08.1.144.181.191a.686.686 0 0 0 .339.069c.084 0 .174-.007.266-.017.091-.014.206-.041.346-.087v.821a7.827 7.827 0 0 1-.422.042c-.118.003-.225.009-.322.009-.463 0-.813-.104-1.038-.315-.228-.21-.342-.529-.342-.956v-2.418h-.745v-.752h.743v-.924l.917-.551v1.475h1.232v.753zM126.294 27.294h-1.087v-1.078h1.087v1.078zm-.079 5.136h-.915v-4.342h.915v4.342zM131.399 30.23c0 .685-.188 1.233-.565 1.642-.379.409-.906.611-1.585.611-.638 0-1.158-.19-1.552-.577-.398-.387-.598-.941-.598-1.666 0-.312.043-.604.129-.881.088-.277.217-.52.389-.727.178-.207.4-.37.668-.492.269-.121.585-.182.947-.182.68 0 1.211.207 1.593.616.384.416.574.966.574 1.656zm-.95 0c0-.196-.021-.383-.063-.566a1.598 1.598 0 0 0-.213-.488 1.125 1.125 0 0 0-.381-.344 1.16 1.16 0 0 0-.566-.129c-.215 0-.4.041-.553.124-.15.084-.275.194-.375.335a1.487 1.487 0 0 0-.211.492 2.561 2.561 0 0 0-.064.586c0 .199.021.393.067.574.048.182.12.34.218.479.096.138.225.247.381.326.162.08.351.121.568.121.213 0 .395-.041.551-.125.15-.081.272-.192.365-.332a1.44 1.44 0 0 0 .213-.479 2.53 2.53 0 0 0 .063-.574zM135.89 32.39h-.86v-2.358c0-.134-.006-.269-.008-.406s-.026-.269-.072-.388a.657.657 0 0 0-.207-.291c-.098-.078-.241-.125-.432-.141-.266-.02-.5.09-.707.328a2.186 2.186 0 0 0-.46.897c-.021.103-.04.206-.052.305-.01.103-.019.195-.019.281v1.772h-.86v-4.346h.86v.968h.049c.021-.058.054-.147.101-.264.045-.118.119-.238.225-.358.097-.115.226-.215.385-.307.157-.088.362-.133.616-.133.415 0 .757.124 1.032.371.271.247.409.592.409 1.035v3.035z"/></g></g><g><path fill="#B71B30" d="M204.207 9.712c.053.076.119.148.128.228.076.233.292.376.321.617.006.081.115.109.165.146.056.078.017.16.129.272.056.034.017.12.021.198.055.034.113.073.164.104.487.763.535 1.649-.029 2.467a.87.87 0 0 0-.213.342c-.045.05-.141.099-.191.142.012.082.07.117.129.193-.244.06-.276.266-.461.402l-.201.02c-.135.136-.281.189-.42.281-.045.046-.031.168-.029.207a1.48 1.48 0 0 1-.928.289c-.043.004-.082.131-.131.136-.252.021-.551.011-.805.03-.102-.027-.162-.106-.262-.133-.103.008-.204.018-.308-.014-.161-.106-.366-.129-.526-.193-.101-.028-.291.064-.403-.002-.333-.291-.664-.583-.849-.891-.125-.191-.332-.25-.406-.447-.006-.078.03-.203-.076-.236-.204-.061-.121-.187-.134-.31-.058-.112-.07-.195-.182-.305-.065-.116.019-.288-.05-.44-.006-.039.043-.086.036-.124-.076-.237.048-.489.024-.69a1.19 1.19 0 0 1 .056-.41c.122-.252.243-.547.466-.81-.008-.036-.014-.122-.017-.157.042-.046.091-.053.138-.099.08-.206.161-.378.291-.552.177-.217.461-.408.688-.627.134-.135.325-.235.449-.449.046-.045.208.021.254-.023.136-.134.339-.109.481-.207.139-.093.109.113.258.059.099-.01.145-.055.236-.103.146-.055.307.048.468.075a.74.74 0 0 1 .464.118c.217.142.713.095.795.371.124.192.341.334.46.525"/><path fill="#1279BA" d="M212.642 12.871c-.004-.125 0-.203-.048-.335-.015-.119.084-.26.041-.432-.029-.043-.092-.099-.082-.138.082-.263.089-.501.068-.788-.02-.09-.053-.131-.078-.182.005-.036.021-.111.035-.191.008-.24-.069-.419-.142-.635-.021-.084-.083-.139-.099-.262-.027-.049-.093-.1-.083-.139.063-.35-.108-.629-.157-.961-.08-.377-.44-.621-.552-1.007.006-.038.125-.022.157-.018.285.266.601.574.674.955.049.134.024.249.086.343.241.295.283.664.324 1.033-.008.038.074.018.099.066-.004.039-.021.111.007.16.184.199.072.418.105.627a.634.634 0 0 0 .078.181c-.006.036-.1.139-.107.174.15.194.215.45.171.682.171.077.093.302.136.471.025.047.065.056.098.063a.62.62 0 0 0 .113-.219c.019-.315.036-.597-.021-.89-.046-.132-.065-.253.024-.354-.066-.018-.09-.1-.117-.147-.125-.509-.182-1.081-.33-1.605 0 0 .037-.029.048-.065-.053-.461-.4-.892-.565-1.352-.029-.082-.162-.182-.222-.268l.007-.077c.18.023.314.199.407.327.185.266.401.559.458.855.1.261.248.535.303.795.04.172.162.279.245.422.046.135.026.245.035.369.05.304.14.582.198.877.07.219.096.469.024.655-.094.339.129.71.222 1.01.049.132-.014.274-.07.385-.004.042.057.095.049.134-.062.146-.016.279-.04.434-.042.033.048.132 0 .198-.042.034-.079.026-.122.058-.052.109-.008.238-.029.354-.109.217-.049.51-.263.667-.083.021-.089.061-.129.09.035.009.063.057.089.103-.043.03-.076.021-.119.053-.014.077.137.173.166.22-.06.311-.287.58-.282.945-.015.074-.032.193-.049.27-.072.185-.204.318-.274.504-.014.081-.162.084-.178.16-.09.102-.082.266-.15.412-.047.07-.152.045-.236.109-.096.139-.082.262-.148.409-.105.175-.237.37-.342.546a2.2 2.2 0 0 1-.539.696c-.035-.011-.108.017-.152.047-.111.22-.244.38-.482.485-.037-.007-.09.16-.133.191-.165.125-.254.266-.457.381-.078.023-.117.058-.203-.083-.258.462-.611.825-.99 1.144-.201.118-.398.104-.53.233-.437.431-1.126.882-1.202.942-.033-.005-.162.191-.162.191-.141.012-.061.023-.191-.004 0 0-.006.213-.182.252-.375.074-.471.507-.5.683-.015.093-.076.03-.117.066-.045.037-.02.091-.059.126-.162.1-.299.299-.439.449-.036.039-.066-.016-.108.021-.046.037-.24.282-.311.496-.169.374-.356.715-.589.982-.061.061.131.316.117.399-.053.12-.164.136-.214.259-.049.295-.06.624-.116.938-.08.306.023.521.066.793.045.233-.01.527 0 .752.016.178.138.374.119.549.002.266-.056.231 0 .454-.01.137-.049.264-.023.354-.01.178-.032.288-.046.463-.034.041-.116.125-.118.166-.021.441-.311.832-.613 1.116-.187.12-.346.306-.563.29-.108-.008-.464.223-.584.25a1.99 1.99 0 0 1-.871.046c-.332-.093-.603-.171-.828-.519-.139-.151-.373-.091-.463-.328-.028-.09-.221-.139-.25-.188-.178-.157-.271-.349-.4-.541-.088-.235-.025-.397-.131-.623-.109-.143-.16-.236-.267-.376-.147-.184.035-.451-.073-.634a.5.5 0 0 1-.182-.229c-.07-.182-.053-.447-.162-.635-.06-.23-.023-1.061.024-1.286.006-.042-.124-.108-.114-.151.018-.318.129-.629.104-.964.033-.178.017-.321.178-.474 0 0-.076-.059-.064-.108.09-.261.09-.459.141-.727.01-.046.104-.077.115-.118-.056-.195-.056-.594-.028-.774.021-.095.253-.226.31-.305.007-.042-.034-.161.049-.315.023-.039.086-.025.132-.061.004-.049-.026-.1-.017-.143.023-.137.248-.23.262-.32.093-.305.243-.428.404-.681.058-.104.08-.224.173-.32.044-.034.065 0 .072-.04.004-.042-.015-.129-.007-.164.09-.105.212-.194.232-.311.064-.148.121-.256.207-.355.164-.127.33-.248.435-.426.09-.103.192-.082.281-.181.132-.132.168-.321.262-.464.231-.271.478-.457.726-.642.207-.156.465-.22.666-.333.207-.155.332-.45.532-.563.124-.096.267-.104.396-.197.119-.091.223-.271.412-.308.408-.109.115.003.501-.146.239-.149.14-.191.383-.337.399-.23.601-.379.641-.376.04-.03.083-.06.095-.138.097-.141.608-.5.688-.523.072-.019.161.082.251-.019.052-.071-.046-.132 0-.203.134-.134.257-.312.386-.402.039-.031.141.033.217.008.041-.028.057-.106.096-.138.054-.072-.039-.171.01-.242.058-.106.113-.219.189-.238.125-.055.283-.139.264-.221.023-.157.089-.307.248-.389.01-.039.014-.081.023-.118.094-.099.174-.165.267-.261.099-.142.056-.311.116-.422.18-.201.356-.361.408-.633-.014-.125-.09-.305-.035-.41.051-.07.201-.115.214-.191.032-.159-.046-.338-.053-.498.019-.116.146-.211.132-.33-.014-.324.007-.645-.039-.975.111-.018.125-.095.139-.173-.027-.249-.166-.478-.232-.733-.006-.166.126-.295.119-.458-.014-.122-.136-.274-.261-.378-.12-.145-.04-.372-.087-.541-.033-.211-.193-.365-.217-.615-.014-.119-.162-.113-.212-.248a2.002 2.002 0 0 1-.085-.539c-.022-.087-.135-.07-.2-.123-.14-.232-.09-.706-.397-.813.023-.155-.119-.185-.164-.315.184 0 .353.076.455.303.03.044.135.068.172.075.092.101.085.343.182.402.127.108.32.069.366.202.075.214.237.33.313.51a.349.349 0 0 0 .044.172c.125.106.138.23.232.332.209.245.422.493.324.836-.063.145.129.107.188.199.139.234.08.542.263.744-.034.396.157.757.279 1.105-.204.318-.093.874.069 1.19 0 0 .115-.017.119-.056.039-.193.389-.256.33-.35-.07-.217-.175-.668-.175-.87a3.937 3.937 0 0 0-.017-.931c-.029-.046-.056-.09-.087-.135-.036-.172-.081-.344-.044-.535-.021-.087-.088-.139-.106-.225l.026-.156c.08-.02.178.039.246.057.066.053.01.16.039.206.11.188.281.265.318.474-.011.036-.023.117-.029.156.029.246.174.438.211.648.012.124-.094.303-.041.431.159.315.169.682.141 1.036-.03.157.166.281.113.389-.055.111.014.127-.045.235-.004.038-.084.058-.089.095.105.227-.054.565-.087.762-.01.039.117.08.145-.063.014-.084.162-.082.239-.107.077-.057.139-.206.133-.367m.761.776c.004-.199.097-.341.063-.549-.069-.221-.229-.006-.344.01.063.256-.045.432-.118.658-.046.07-.086.265.027.248.178.038.367-.13.372-.367m-.302 1.057c.044-.063.021-.185-.04-.242-.096-.06-.223.031-.281.139-.059.11-.016.281.133.273.034.008.14-.103.188-.17"/><path fill="#1279BA" d="M211.027 8.104c.188.141.258.381.41.572l-.016.078c-.263.222-.489-.146-.559-.363-.107-.228-.212-.446-.406-.614l.029-.118c-.093-.096-.215-.241-.093-.297.044-.069.132.067.228.134.15.191.177.437.407.608M212.094 7.11c.002.039-.061.107-.07.145a1.752 1.752 0 0 1-.353-.416c-.032-.008-.102-.029-.129-.078-.036-.011-.026-.048-.019-.086.112-.008.201.096.297.164.033.006.082-.023.111-.016a.363.363 0 0 1 .163.287"/><path fill="#128D3B" d="M196.173 14.229a.842.842 0 0 1 .108.107c.06.039.118.045.181.016.058.002.11.156.168.159.085.042.14.19.222.262.057.036.117.091.172.13.083.102.132.205.215.277.056.07.146.043.203.047.115.047.164.211.244.312.031.005.084.108.078.141.059.034.111.106.199.144.025.034.021.099.047.133.214.346.495.563.674.936 0 0 .023.063.021.096.219.215.318.516.506.756.053.1.099.265.146.402.056.071.111.106.167.178.077.136.151.303.169.468-.001.063-.047.255-.158.146-.139-.14-.122-.329-.261-.439.005-.034-.036-.12-.063-.152-.056-.066-.158-.064-.181-.163.007-.093-.104-.176-.156-.242-.139-.199-.347-.275-.513-.48-.031 0-.062 0-.092.027-.035.064-.12.16-.04.262.118.07.169.203.314.273.087.067.108.264.161.43a.574.574 0 0 0 .199.172c.085.068.053.169.133.276-.002.031-.037.063-.039.094.055.099.174.075.259.185.06-.061.146-.014.2.078-.1.092-.074.159-.11.255-.095.149.124.299.267.377.088.009.079.167.164.242.049.099.196.113.275.247.023.066-.037.098-.07.155-.009.102.106.139.164.179.054.035.078.105.104.168-.089.023-.263-.094-.353-.101-.056-.025-.159-.152-.272-.179-.041-.008-.064.086-.11.076-.053-.008-.111-.02-.168-.031-.063-.01-.214-.172-.274-.185-.076-.014-.162.124-.238.108-.267-.046-.271-.064-.359-.096a3.547 3.547 0 0 1-.276-.137c-.059-.031-.045-.107-.099-.144-.054-.033-.168-.033-.223-.064-.213-.134-.413-.423-.596-.521-.119-.061-.221-.125-.353-.188-.063-.039-.112-.135-.192-.162-.25-.078-.451-.238-.734-.321-.542-.151-.99.155-1.428.386-.022 0-.067-.006-.092.014-.102.084-.22.131-.318.195-.137.107-.324.139-.477.228-.047.024-.053.115-.1.144-.072.043-.203.05-.27.092-.065.045-.072.119-.133.165-.129.101-.25.183-.419.265-.099.049-.907.184-1.04.189-.21.002-.355.172-.666.172-.471-.002-.943-.008-1.336-.303-.086-.074-.104-.27-.152-.305-.174-.112-.152-.335-.203-.507-.056-.032-.172-.044-.166-.14.064-.485.303-.919.594-1.253.067-.124.219-.176.232-.339 0 0 .263-.367.422-.516.035-.064-.014-.165.019-.228.237-.468.678-.788 1.034-1.216.092-.088.162-.215.311-.234.063.004.119.009.154-.055.066-.154.193-.237.287-.301.343-.232.631-.582 1.019-.645.062-.026.099-.091.156-.121.069-.057.178.014.24-.013.288-.133.554-.407.853-.451.059-.026.1-.095.122-.09.269.024.579-.209.827.036.224-.044.56.001.7.122m2.029 2.84v-.103c-.115-.065-.165-.263-.313-.304-.029 0-.088.027-.088.059-.006.195.074.332.154.496.035-.127.121-.125.178-.025a.275.275 0 0 0 .069-.123"/><path fill="#3E3B3A" d="m226.475 26.136-1.338 1.393-3.711-3.628a8.475 8.475 0 0 1-1.75 2.206 11.776 11.776 0 0 1-2.025 1.477l-1.296-1.486a7.801 7.801 0 0 0 1.878-1.279 7.72 7.72 0 0 0 1.269-1.539 6.267 6.267 0 0 0 .953-3.293v-2.561h2.047v2.194c0 .427-.022.835-.08 1.229-.052.387-.128.764-.214 1.13l4.267 4.157zm4.246 6.295h-1.939v-9.809h-4.046v-1.868h4.046v-4.978h1.939v16.655zM248.281 25.147h-6.938v.913h3.44v4.299h-6.643v.827h7.082v1.866h-9.096v-4.467h6.627v-.732h-6.719V26.06h3.354v-.913h-6.793v-1.829h15.686v1.829zm-3.663-5.897c0 .528-.111 1.011-.339 1.44-.222.436-.525.81-.906 1.127a4.593 4.593 0 0 1-1.379.715 5.673 5.673 0 0 1-1.73.254 5.633 5.633 0 0 1-1.654-.236 4.36 4.36 0 0 1-1.38-.695 3.416 3.416 0 0 1-.93-1.109c-.227-.434-.335-.923-.335-1.475 0-.547.107-1.045.325-1.489.224-.445.528-.827.921-1.144a4.026 4.026 0 0 1 1.35-.734 5.487 5.487 0 0 1 1.703-.252c.598 0 1.163.082 1.693.252.53.171.992.418 1.381.734a3.4 3.4 0 0 1 .935 1.127c.227.443.345.939.345 1.485m-2.011-.013c0-.574-.232-1.026-.699-1.355-.461-.332-1.01-.493-1.645-.493-.658 0-1.215.159-1.654.481-.449.326-.668.78-.668 1.367 0 .559.219 1.001.668 1.319.439.313.996.472 1.654.472.635 0 1.184-.146 1.645-.438.467-.289.699-.744.699-1.353M264.756 26.345h-15.663v-1.85h15.663v1.85zm-3.401 6.708h-1.961v-3.816h-7.009v-1.868h8.97v5.684zm-.04-9.507h-8.854v-7.211h8.747v1.848h-6.807v.788h6.588v1.863h-6.588v.864h6.913v1.848zM273.547 24.284h-7.451v-7.609h1.945v2.197h3.549v-2.197h1.957v7.609zm-1.957-3.567h-3.554v1.724h3.554v-1.724zm7.464 12.335h-8.985v-4.593h6.536v-.953h-6.628v-1.845h8.639v4.594h-6.497v.951h6.936v1.846zm.145-7.924h-1.922v-1.771h-3.146v-1.836h3.146v-1.316h-3.146v-1.85h3.146v-2.579h1.922v9.352zM291.141 26.189l-1.336 1.394-3.699-3.643a8.19 8.19 0 0 1-1.729 2.223 11.108 11.108 0 0 1-2.056 1.473l-1.304-1.48c.743-.404 1.376-.85 1.897-1.338a7.758 7.758 0 0 0 1.266-1.518 6.542 6.542 0 0 0 .709-1.628c.154-.552.23-1.096.23-1.63v-2.62h2.049v2.25c0 .431-.029.835-.082 1.22-.053.386-.127.752-.212 1.106l4.267 4.191zm4.005 6.242h-1.959V15.776h1.959v16.655z"/></g></svg>