<svg xmlns="http://www.w3.org/2000/svg" width="86" height="28" xml:space="preserve"><g fill="#FFF"><path d="M72.345 13.45h6.459v1.742h-6.459zM70.598 15.192h1.747v6.464h-1.747zM70.598 13.45h1.747v1.742h-1.747zM70.598 6.74h1.747v6.71h-1.747zM63.893 13.45h6.705v1.742h-6.705z"/></g><g><g fill="#414142"><path d="m21.153 16.377.204 1.19c-1.689.362-3.882.544-6.579.544h-1.53V8.354h6.953v1.224h-5.44v7.293c2.652-.001 4.783-.165 6.392-.494zm3.655 5.39h-1.496V13.47h-4.233v-1.292h4.233v-5.27h1.496v14.859zM39.122 15.799H34.77v2.925h5.984v1.224H27.341v-1.224h5.916v-2.925h-4.301V7.945h1.513v2.703h7.157V7.945h1.496v7.854zm-1.496-1.24v-2.687h-7.157v2.687h7.157zM49.883 8.489c-.045 2.278-.677 4.292-1.896 6.043s-2.887 3.205-5.006 4.361l-.918-1.14c1.756-.838 3.193-1.98 4.31-3.425 1.116-1.445 1.742-2.967 1.878-4.564h-5.525V8.489h7.157zm4.352 13.278h-1.513V6.908h1.513v14.859z"/></g></g></svg>